<svg width="243" height="523" viewBox="0 0 243 523" fill="none" xmlns="http://www.w3.org/2000/svg">
<mask id="mask0" mask-type="alpha" maskUnits="userSpaceOnUse" x="0" y="0" width="243" height="523">
<rect y="0.112793" width="242.361" height="522.774" fill="#FFFF00"/>
</mask>
<g mask="url(#mask0)">
<path fill-rule="evenodd" clip-rule="evenodd" d="M122.352 408.146H101.862V428.05C101.862 436.779 108.939 443.856 117.668 443.856H138.158V423.952C138.158 415.223 131.081 408.146 122.352 408.146ZM100.106 406.39V428.05C100.106 437.749 107.969 445.612 117.668 445.612H139.914V423.952C139.914 414.253 132.051 406.39 122.352 406.39H100.106Z" fill="white"/>
<path fill-rule="evenodd" clip-rule="evenodd" d="M217.188 446.783V486.591H177.966V486.006C177.966 485.614 177.972 485.224 177.983 484.835C178.585 464.299 194.973 447.723 215.432 446.822C216.014 446.796 216.6 446.783 217.188 446.783ZM215.432 448.58V484.835H179.74C180.341 465.269 195.943 449.479 215.432 448.58Z" fill="white"/>
<path d="M215.432 486.591C237.418 486.591 255.24 468.769 255.24 446.783H215.432V486.591Z" fill="#FFFF00"/>
<path fill-rule="evenodd" clip-rule="evenodd" d="M215.432 486.591V446.783H255.24C255.24 447.372 255.227 447.957 255.202 448.539C254.308 469.128 237.777 485.659 217.188 486.553C216.606 486.579 216.021 486.591 215.432 486.591ZM217.188 484.795V448.539H253.444C252.553 468.158 236.806 483.904 217.188 484.795Z" fill="white"/>
<path fill-rule="evenodd" clip-rule="evenodd" d="M175.624 408.146H155.72C146.991 408.146 139.914 415.223 139.914 423.952V443.856H159.818C168.548 443.856 175.624 436.779 175.624 428.05V408.146ZM155.72 406.39C146.021 406.39 138.158 414.253 138.158 423.952V445.612H159.818C169.517 445.612 177.38 437.749 177.38 428.05V406.39H155.72Z" fill="white"/>
<path d="M100.106 445.612H122.352C132.051 445.612 139.914 453.475 139.914 463.175V485.42H117.668C107.969 485.42 100.106 477.557 100.106 467.858V445.612Z" fill="#FFFF00"/>
<path fill-rule="evenodd" clip-rule="evenodd" d="M122.352 447.369H101.862V467.858C101.862 476.588 108.939 483.664 117.668 483.664H138.158V463.175C138.158 454.445 131.081 447.369 122.352 447.369ZM100.106 445.612V467.858C100.106 477.557 107.969 485.42 117.668 485.42H139.914V463.175C139.914 453.475 132.051 445.612 122.352 445.612H100.106Z" fill="white"/>
<path d="M60.8833 406.39H39.223C29.5236 406.39 21.6606 414.253 21.6606 423.952V445.612H43.3209C53.0203 445.612 60.8833 437.749 60.8833 428.05V406.39Z" fill="#FFFF00"/>
<path fill-rule="evenodd" clip-rule="evenodd" d="M39.223 408.146H59.1271V428.05C59.1271 436.779 52.0504 443.856 43.3209 443.856H23.4168V423.952C23.4168 415.223 30.4935 408.146 39.223 408.146ZM60.8833 406.39V428.05C60.8833 437.749 53.0203 445.612 43.3209 445.612H21.6606V423.952C21.6606 414.253 29.5236 406.39 39.223 406.39H60.8833Z" fill="white"/>
<path d="M23.4165 445.612H1.17079C-8.52866 445.612 -16.3916 437.749 -16.3916 428.05V406.39H5.8541C15.5535 406.39 23.4165 414.253 23.4165 423.952V445.612Z" fill="#FFFF00"/>
<path fill-rule="evenodd" clip-rule="evenodd" d="M1.17079 443.856H21.6603V423.952C21.6603 415.223 14.5836 408.146 5.8541 408.146H-14.6354V428.05C-14.6354 436.779 -7.55871 443.856 1.17079 443.856ZM23.4165 445.612V423.952C23.4165 414.253 15.5535 406.39 5.8541 406.39H-16.3916V428.05C-16.3916 437.749 -8.52866 445.612 1.17079 445.612H23.4165Z" fill="white"/>
<path fill-rule="evenodd" clip-rule="evenodd" d="M42.7352 487.177H62.6393V507.081C62.6393 515.81 55.5626 522.887 46.8331 522.887H26.929V502.983C26.929 494.253 34.0057 487.177 42.7352 487.177ZM64.3955 485.42V507.081C64.3955 516.78 56.5326 524.643 46.8331 524.643H25.1728V502.983C25.1728 493.283 33.0358 485.42 42.7352 485.42H64.3955Z" fill="white"/>
<path fill-rule="evenodd" clip-rule="evenodd" d="M84.2995 447.369H64.3954V467.858C64.3954 476.588 71.4721 483.664 80.2016 483.664H100.106V463.175C100.106 454.445 93.029 447.369 84.2995 447.369ZM62.6392 445.612V467.858C62.6392 477.557 70.5021 485.42 80.2016 485.42H101.862V463.175C101.862 453.475 93.9989 445.612 84.2995 445.612H62.6392Z" fill="white"/>
<path fill-rule="evenodd" clip-rule="evenodd" d="M1.17079 446.198H21.6603V466.687C21.6603 475.417 14.5836 482.493 5.8541 482.493H-14.6354V462.004C-14.6354 453.274 -7.55871 446.198 1.17079 446.198ZM23.4165 444.441V466.687C23.4165 476.387 15.5535 484.25 5.8541 484.25H-16.3916V462.004C-16.3916 452.304 -8.52866 444.441 1.17079 444.441H23.4165Z" fill="white"/>
<path fill-rule="evenodd" clip-rule="evenodd" d="M199.626 487.177H179.722V507.081C179.722 515.81 186.799 522.887 195.528 522.887H215.432V502.983C215.432 494.253 208.356 487.177 199.626 487.177ZM177.966 485.42V507.081C177.966 516.78 185.829 524.643 195.528 524.643H217.189V502.983C217.189 493.283 209.326 485.42 199.626 485.42H177.966Z" fill="white"/>
<path d="M62.6392 485.42H84.2995C93.9989 485.42 101.862 493.283 101.862 502.983V524.643H80.2016C70.5021 524.643 62.6392 516.78 62.6392 507.081V485.42Z" fill="#FFFF00"/>
<path fill-rule="evenodd" clip-rule="evenodd" d="M84.2995 487.177H64.3954V507.081C64.3954 515.81 71.4721 522.887 80.2016 522.887H100.106V502.983C100.106 494.253 93.029 487.177 84.2995 487.177ZM62.6392 485.42V507.081C62.6392 516.78 70.5021 524.643 80.2016 524.643H101.862V502.983C101.862 493.283 93.9989 485.42 84.2995 485.42H62.6392Z" fill="white"/>
<path fill-rule="evenodd" clip-rule="evenodd" d="M161.574 522.887H141.67V502.983C141.67 494.254 148.747 487.177 157.476 487.177H177.381V507.081C177.381 515.811 170.304 522.887 161.574 522.887ZM139.914 524.644V502.983C139.914 493.284 147.777 485.421 157.476 485.421H179.137V507.081C179.137 516.781 171.274 524.644 161.574 524.644H139.914Z" fill="white"/>
<path d="M177.966 465.517C177.966 475.216 169.972 483.079 160.11 483.079C150.249 483.079 142.255 475.216 142.255 465.517C142.255 455.817 150.249 447.954 160.11 447.954C169.972 447.954 177.966 455.817 177.966 465.517Z" fill="#FFFF00"/>
<path fill-rule="evenodd" clip-rule="evenodd" d="M160.11 481.323C169.029 481.323 176.209 474.219 176.209 465.517C176.209 456.814 169.029 449.71 160.11 449.71C151.192 449.71 144.012 456.814 144.012 465.517C144.012 474.219 151.192 481.323 160.11 481.323ZM160.11 483.079C169.972 483.079 177.966 475.216 177.966 465.517C177.966 455.817 169.972 447.954 160.11 447.954C150.249 447.954 142.255 455.817 142.255 465.517C142.255 475.216 150.249 483.079 160.11 483.079Z" fill="white"/>
<path fill-rule="evenodd" clip-rule="evenodd" d="M120.01 521.131C128.712 521.131 135.816 513.951 135.816 505.032C135.816 496.113 128.712 488.933 120.01 488.933C111.307 488.933 104.204 496.113 104.204 505.032C104.204 513.951 111.307 521.131 120.01 521.131ZM120.01 522.887C129.709 522.887 137.572 514.893 137.572 505.032C137.572 495.171 129.709 487.177 120.01 487.177C110.31 487.177 102.447 495.171 102.447 505.032C102.447 514.893 110.31 522.887 120.01 522.887Z" fill="white"/>
<path d="M257.582 426.294C257.582 435.67 249.981 443.271 240.605 443.271C231.229 443.271 223.628 435.67 223.628 426.294C223.628 416.918 231.229 409.317 240.605 409.317C249.981 409.317 257.582 416.918 257.582 426.294Z" fill="#FFFF00"/>
<path fill-rule="evenodd" clip-rule="evenodd" d="M240.605 441.515C249.011 441.515 255.826 434.7 255.826 426.294C255.826 417.888 249.011 411.073 240.605 411.073C232.199 411.073 225.384 417.888 225.384 426.294C225.384 434.7 232.199 441.515 240.605 441.515ZM240.605 443.271C249.981 443.271 257.582 435.67 257.582 426.294C257.582 416.918 249.981 409.317 240.605 409.317C231.229 409.317 223.628 416.918 223.628 426.294C223.628 435.67 231.229 443.271 240.605 443.271Z" fill="white"/>
<path d="M97.764 426.294C97.764 435.67 90.1632 443.271 80.7871 443.271C71.4109 443.271 63.8101 435.67 63.8101 426.294C63.8101 416.918 71.4109 409.317 80.7871 409.317C90.1632 409.317 97.764 416.918 97.764 426.294Z" fill="#FFFF00"/>
<path fill-rule="evenodd" clip-rule="evenodd" d="M80.7871 441.515C89.1932 441.515 96.0078 434.7 96.0078 426.294C96.0078 417.888 89.1932 411.073 80.7871 411.073C72.3809 411.073 65.5663 417.888 65.5663 426.294C65.5663 434.7 72.3809 441.515 80.7871 441.515ZM80.7871 443.271C90.1632 443.271 97.764 435.67 97.764 426.294C97.764 416.918 90.1632 409.317 80.7871 409.317C71.4109 409.317 63.8101 416.918 63.8101 426.294C63.8101 435.67 71.4109 443.271 80.7871 443.271Z" fill="white"/>
<path d="M260.509 505.032C260.509 515.863 251.598 524.643 240.605 524.643C229.613 524.643 220.701 515.863 220.701 505.032C220.701 494.201 229.613 485.42 240.605 485.42C251.598 485.42 260.509 494.201 260.509 505.032Z" fill="#FFFF00"/>
<path fill-rule="evenodd" clip-rule="evenodd" d="M240.605 522.887C250.653 522.887 258.753 514.868 258.753 505.032C258.753 495.195 250.653 487.177 240.605 487.177C230.558 487.177 222.457 495.195 222.457 505.032C222.457 514.868 230.558 522.887 240.605 522.887ZM240.605 524.643C251.598 524.643 260.509 515.863 260.509 505.032C260.509 494.201 251.598 485.42 240.605 485.42C229.613 485.42 220.701 494.201 220.701 505.032C220.701 515.863 229.613 524.643 240.605 524.643Z" fill="white"/>
<path fill-rule="evenodd" clip-rule="evenodd" d="M198.748 441.515C207.639 441.515 214.847 434.307 214.847 425.416C214.847 416.524 207.639 409.317 198.748 409.317C189.857 409.317 182.649 416.524 182.649 425.416C182.649 434.307 189.857 441.515 198.748 441.515ZM198.748 443.271C208.609 443.271 216.603 435.277 216.603 425.416C216.603 415.555 208.609 407.561 198.748 407.561C188.887 407.561 180.893 415.555 180.893 425.416C180.893 435.277 188.887 443.271 198.748 443.271Z" fill="white"/>
<path fill-rule="evenodd" clip-rule="evenodd" d="M43.0285 481.323C51.9471 481.323 59.1273 474.219 59.1273 465.517C59.1273 456.814 51.9471 449.71 43.0285 449.71C34.1098 449.71 26.9296 456.814 26.9296 465.517C26.9296 474.219 34.1098 481.323 43.0285 481.323ZM43.0285 483.079C52.8896 483.079 60.8836 475.216 60.8836 465.517C60.8836 455.817 52.8896 447.954 43.0285 447.954C33.1673 447.954 25.1733 455.817 25.1733 465.517C25.1733 475.216 33.1673 483.079 43.0285 483.079Z" fill="white"/>
<path d="M210.749 425.416C210.749 432.043 205.376 437.417 198.748 437.417C192.12 437.417 186.747 432.043 186.747 425.416C186.747 418.788 192.12 413.415 198.748 413.415C205.376 413.415 210.749 418.788 210.749 425.416Z" fill="white"/>
<path d="M55.0293 465.517C55.0293 471.983 49.6563 477.225 43.0283 477.225C36.4004 477.225 31.0273 471.983 31.0273 465.517C31.0273 459.051 36.4004 453.809 43.0283 453.809C49.6563 453.809 55.0293 459.051 55.0293 465.517Z" fill="white"/>
<path d="M172.111 465.517C172.111 471.983 166.738 477.225 160.11 477.225C153.482 477.225 148.109 471.983 148.109 465.517C148.109 459.051 153.482 453.809 160.11 453.809C166.738 453.809 172.111 459.051 172.111 465.517Z" fill="white"/>
<path d="M131.718 505.032C131.718 511.66 126.476 517.033 120.01 517.033C113.544 517.033 108.302 511.66 108.302 505.032C108.302 498.404 113.544 493.031 120.01 493.031C126.476 493.031 131.718 498.404 131.718 505.032Z" fill="white"/>
</g>
<path d="M87.09 265.545C86.9733 265.732 86.8508 265.866 86.7225 265.947C86.5942 266.017 86.4308 266.052 86.2325 266.052C86.0225 266.052 85.795 265.994 85.55 265.877C85.3167 265.761 85.0425 265.632 84.7275 265.492C84.4125 265.341 84.0508 265.207 83.6425 265.09C83.2458 264.973 82.7733 264.915 82.225 264.915C81.3733 264.915 80.7025 265.096 80.2125 265.457C79.7342 265.819 79.495 266.292 79.495 266.875C79.495 267.26 79.6175 267.587 79.8625 267.855C80.1192 268.112 80.4517 268.339 80.86 268.537C81.28 268.736 81.7525 268.917 82.2775 269.08C82.8025 269.232 83.3333 269.401 83.87 269.587C84.4183 269.774 84.955 269.99 85.48 270.235C86.005 270.468 86.4717 270.772 86.88 271.145C87.3 271.507 87.6325 271.944 87.8775 272.457C88.1342 272.971 88.2625 273.589 88.2625 274.312C88.2625 275.176 88.105 275.975 87.79 276.71C87.4867 277.433 87.0317 278.063 86.425 278.6C85.8183 279.125 85.0658 279.539 84.1675 279.842C83.2808 280.134 82.2542 280.28 81.0875 280.28C80.4692 280.28 79.8625 280.222 79.2675 280.105C78.6842 280 78.1183 279.848 77.57 279.65C77.0333 279.452 76.5317 279.218 76.065 278.95C75.61 278.682 75.2075 278.39 74.8575 278.075L75.855 276.43C75.9833 276.232 76.135 276.08 76.31 275.975C76.485 275.87 76.7067 275.817 76.975 275.817C77.2433 275.817 77.4942 275.893 77.7275 276.045C77.9725 276.197 78.2525 276.36 78.5675 276.535C78.8825 276.71 79.25 276.873 79.67 277.025C80.1017 277.177 80.6442 277.252 81.2975 277.252C81.8108 277.252 82.2483 277.194 82.61 277.077C82.9833 276.949 83.2867 276.786 83.52 276.587C83.765 276.389 83.94 276.162 84.045 275.905C84.1617 275.637 84.22 275.362 84.22 275.082C84.22 274.662 84.0917 274.318 83.835 274.05C83.59 273.782 83.2575 273.548 82.8375 273.35C82.4292 273.152 81.9567 272.977 81.42 272.825C80.895 272.662 80.3525 272.487 79.7925 272.3C79.2442 272.113 78.7017 271.897 78.165 271.652C77.64 271.396 77.1675 271.075 76.7475 270.69C76.3392 270.305 76.0067 269.832 75.75 269.272C75.505 268.712 75.3825 268.036 75.3825 267.242C75.3825 266.507 75.5283 265.807 75.82 265.142C76.1117 264.477 76.5375 263.9 77.0975 263.41C77.6692 262.908 78.375 262.512 79.215 262.22C80.0667 261.917 81.0467 261.765 82.155 261.765C83.3917 261.765 84.5175 261.969 85.5325 262.377C86.5475 262.786 87.3933 263.322 88.07 263.987L87.09 265.545ZM117.153 262.045L111.448 280H107.983C107.587 280 107.313 279.743 107.161 279.23L103.941 268.852C103.836 268.502 103.737 268.158 103.643 267.82C103.562 267.47 103.492 267.12 103.433 266.77C103.363 267.12 103.282 267.476 103.188 267.837C103.107 268.187 103.013 268.537 102.908 268.887L99.6359 279.23C99.4959 279.743 99.1867 280 98.7084 280H95.3834L89.6959 262.045H93.1434C93.4584 262.045 93.7267 262.121 93.9484 262.272C94.17 262.424 94.3159 262.617 94.3859 262.85L96.9584 272.44C97.0867 272.965 97.1975 273.478 97.2909 273.98C97.3959 274.482 97.4834 274.983 97.5534 275.485C97.6817 274.983 97.8159 274.482 97.9559 273.98C98.1075 273.478 98.265 272.965 98.4284 272.44L101.403 262.815C101.473 262.582 101.608 262.389 101.806 262.237C102.016 262.086 102.267 262.01 102.558 262.01H104.466C104.769 262.01 105.026 262.086 105.236 262.237C105.458 262.389 105.603 262.582 105.673 262.815L108.561 272.44C108.713 272.965 108.853 273.484 108.981 273.997C109.121 274.499 109.255 275.001 109.383 275.503C109.535 274.511 109.751 273.49 110.031 272.44L112.673 262.85C112.755 262.617 112.901 262.424 113.111 262.272C113.321 262.121 113.572 262.045 113.863 262.045H117.153ZM128.857 272.335C127.609 272.393 126.559 272.504 125.707 272.667C124.856 272.819 124.173 273.017 123.66 273.262C123.146 273.507 122.779 273.793 122.557 274.12C122.336 274.447 122.225 274.802 122.225 275.187C122.225 275.946 122.446 276.488 122.89 276.815C123.345 277.142 123.934 277.305 124.657 277.305C125.544 277.305 126.308 277.147 126.95 276.832C127.603 276.506 128.239 276.016 128.857 275.362V272.335ZM118.952 264.547C121.017 262.657 123.502 261.712 126.407 261.712C127.457 261.712 128.396 261.887 129.225 262.237C130.053 262.576 130.753 263.054 131.325 263.672C131.896 264.279 132.328 265.008 132.62 265.86C132.923 266.712 133.075 267.645 133.075 268.66V280H131.115C130.706 280 130.391 279.942 130.17 279.825C129.948 279.697 129.773 279.446 129.645 279.072L129.26 277.777C128.805 278.186 128.361 278.547 127.93 278.862C127.498 279.166 127.049 279.422 126.582 279.632C126.116 279.842 125.614 280 125.077 280.105C124.552 280.222 123.969 280.28 123.327 280.28C122.569 280.28 121.869 280.181 121.227 279.982C120.586 279.772 120.031 279.463 119.565 279.055C119.098 278.647 118.736 278.139 118.48 277.532C118.223 276.926 118.095 276.22 118.095 275.415C118.095 274.96 118.171 274.511 118.322 274.067C118.474 273.612 118.719 273.181 119.057 272.772C119.407 272.364 119.856 271.979 120.405 271.617C120.953 271.256 121.624 270.941 122.417 270.672C123.222 270.404 124.156 270.188 125.217 270.025C126.279 269.85 127.492 269.745 128.857 269.71V268.66C128.857 267.458 128.601 266.572 128.087 266C127.574 265.417 126.833 265.125 125.865 265.125C125.165 265.125 124.581 265.207 124.115 265.37C123.66 265.533 123.257 265.72 122.907 265.93C122.557 266.128 122.236 266.309 121.945 266.472C121.665 266.636 121.35 266.717 121 266.717C120.696 266.717 120.44 266.642 120.23 266.49C120.02 266.327 119.851 266.14 119.722 265.93L118.952 264.547ZM141.468 275.345C141.958 275.94 142.489 276.36 143.061 276.605C143.644 276.85 144.274 276.972 144.951 276.972C145.604 276.972 146.193 276.85 146.718 276.605C147.243 276.36 147.687 275.987 148.048 275.485C148.422 274.983 148.707 274.353 148.906 273.595C149.104 272.825 149.203 271.921 149.203 270.882C149.203 269.832 149.116 268.946 148.941 268.222C148.777 267.487 148.538 266.892 148.223 266.437C147.908 265.982 147.523 265.65 147.068 265.44C146.625 265.23 146.117 265.125 145.546 265.125C144.647 265.125 143.883 265.317 143.253 265.702C142.623 266.076 142.028 266.607 141.468 267.295V275.345ZM141.241 264.495C141.976 263.667 142.81 262.996 143.743 262.482C144.677 261.969 145.773 261.712 147.033 261.712C148.013 261.712 148.906 261.917 149.711 262.325C150.527 262.733 151.227 263.328 151.811 264.11C152.406 264.88 152.861 265.837 153.176 266.98C153.502 268.112 153.666 269.412 153.666 270.882C153.666 272.224 153.485 273.467 153.123 274.61C152.762 275.753 152.242 276.745 151.566 277.585C150.901 278.425 150.09 279.084 149.133 279.562C148.188 280.029 147.127 280.263 145.948 280.263C144.945 280.263 144.087 280.111 143.376 279.807C142.664 279.492 142.028 279.061 141.468 278.512V285.863H137.146V262.045H139.788C140.348 262.045 140.716 262.307 140.891 262.832L141.241 264.495Z" fill="black"/>
</svg>
